<svg width="132" height="28" viewBox="0 0 132 28" fill="none" xmlns="http://www.w3.org/2000/svg">
<path fill-rule="evenodd" clip-rule="evenodd" d="M91.125 13.4846C91.125 8.65699 94.5542 5.32764 99.2486 5.32764C103.943 5.32764 107.406 8.69029 107.406 13.4846C107.406 18.2788 103.91 21.6415 99.2153 21.6415C94.5209 21.6415 91.125 18.2788 91.125 13.4846ZM102.645 13.2518C102.645 10.4884 101.08 8.99023 99.0155 8.99023C96.9513 8.99023 95.4531 10.4884 95.4531 13.2518C95.4531 16.0152 96.9846 17.5467 99.0155 17.5467C101.046 17.5134 102.645 15.9819 102.645 13.2518Z" fill="#801C52"/>
<path d="M108.738 16.3804C108.738 19.3768 110.47 21.1414 113.433 21.1414H115.397V17.3792H114.332C113.533 17.3792 113.166 16.9464 113.166 16.1141V0H108.738V16.3804Z" fill="#801C52"/>
<path d="M127.147 6.32568H131.575V20.309C131.575 25.1365 128.346 27.9998 123.485 27.9998C121.388 27.9998 118.524 27.3339 116.727 24.7037L119.69 22.1068C120.589 23.4053 122.054 24.1377 123.618 24.1044C125.483 24.1044 127.181 22.9392 127.181 20.542V19.7763C126.848 20.8084 125.283 21.3744 124.184 21.3744C120.788 21.3744 117.692 18.8773 117.692 14.7489V6.32568H122.12V14.4826C122.12 16.5801 123.219 17.479 124.65 17.479C126.082 17.479 127.147 16.5801 127.147 14.4826V6.32568Z" fill="#801C52"/>
<path fill-rule="evenodd" clip-rule="evenodd" d="M73.2123 5.32764C75.1252 5.32764 76.8054 5.90978 78.0315 6.97662C79.2657 5.90978 80.9536 5.32764 82.8666 5.32764C86.8285 5.32764 89.7916 7.82465 89.7916 11.9531V21.2752H85.3636V12.2194C85.3636 10.1219 84.2982 9.22299 82.8333 9.22299C81.4016 9.22299 80.3362 10.1219 80.3362 12.2194V21.2752H80.1373H75.9082H75.7093V12.2194C75.7093 10.1219 74.6439 9.22299 73.179 9.22299C71.7473 9.22299 70.6819 10.1219 70.6819 12.2194V21.2752H66.2539V11.9531C66.2539 7.82465 69.2503 5.32764 73.2123 5.32764Z" fill="#801C52"/>
<path fill-rule="evenodd" clip-rule="evenodd" d="M0 11.9526V0H4.32816V5.73739C5.13243 5.46775 6.01821 5.32715 6.95835 5.32715C10.9203 5.32715 13.8834 7.82416 13.8834 11.9526V21.2748H9.45537V12.2189C9.45537 10.1214 8.38998 9.2225 6.92506 9.2225C5.49344 9.2225 4.42804 10.1214 4.42804 12.2189V21.2748H0V16.6468V11.9526Z" fill="#801C52"/>
<path fill-rule="evenodd" clip-rule="evenodd" d="M15.2148 13.4846C15.2148 8.65699 18.6441 5.32764 23.3385 5.32764C28.0329 5.32764 31.4954 8.69029 31.4954 13.4846C31.4954 18.2788 27.9996 21.6415 23.3052 21.6415C18.6108 21.6415 15.2148 18.2788 15.2148 13.4846ZM26.7344 13.2518C26.7344 10.4884 25.1696 8.99023 23.1054 8.99023C21.0412 8.99023 19.543 10.4884 19.543 13.2518C19.543 16.0152 21.0745 17.5467 23.1054 17.5467C25.1363 17.5134 26.7344 15.9819 26.7344 13.2518Z" fill="#801C52"/>
<path d="M32.8281 16.3804C32.8281 19.3768 34.5594 21.1414 37.5225 21.1414H39.4868V17.3792H38.4214C37.6224 17.3792 37.2562 16.9464 37.2562 16.1141V0H32.8281V16.3804Z" fill="#801C52"/>
<path d="M51.2373 6.32568H55.6653V20.309C55.6653 25.1365 52.4359 27.9998 47.575 27.9998C45.4775 27.9998 42.6143 27.3339 40.8164 24.7037L43.7795 22.1068C44.6785 23.4053 46.1434 24.1377 47.7082 24.1044C49.5726 24.1044 51.2706 22.9392 51.2706 20.542V19.7763C50.9376 20.8084 49.3728 21.3744 48.2742 21.3744C44.8782 21.3744 41.7819 18.8773 41.7819 14.7489V6.32568H46.21V14.4826C46.21 16.5801 47.3086 17.479 48.7403 17.479C50.1719 17.479 51.2373 16.5801 51.2373 14.4826V6.32568Z" fill="#801C52"/>
</svg>
