<svg width="1438" height="60" viewBox="0 0 1438 60" fill="none" xmlns="http://www.w3.org/2000/svg">
<path d="M59.9167 0C26.8256 0 0 26.8256 0 59.9167H119.833C119.833 26.8256 93.0077 0 59.9167 0Z" fill="#F2EBFF"/>
<path d="M179.749 0C146.658 0 119.832 26.8256 119.832 59.9167H239.665C239.665 26.8256 212.84 0 179.749 0Z" fill="#F2EBFF"/>
<path d="M299.585 0C266.494 0 239.668 26.8256 239.668 59.9167H359.501C359.501 26.8256 332.676 0 299.585 0Z" fill="#F2EBFF"/>
<path d="M419.417 0C386.326 0 359.5 26.8256 359.5 59.9167H479.333C479.333 26.8256 452.508 0 419.417 0Z" fill="#F2EBFF"/>
<path d="M539.249 0C506.158 0 479.332 26.8256 479.332 59.9167H599.165C599.165 26.8256 572.34 0 539.249 0Z" fill="#F2EBFF"/>
<path d="M659.085 0C625.994 0 599.168 26.8256 599.168 59.9167H719.001C719.001 26.8256 692.176 0 659.085 0Z" fill="#F2EBFF"/>
<path d="M778.917 0C745.826 0 719 26.8256 719 59.9167H838.833C838.833 26.8256 812.008 0 778.917 0Z" fill="#F2EBFF"/>
<path d="M898.749 0C865.658 0 838.832 26.8256 838.832 59.9167H958.665C958.665 26.8256 931.84 0 898.749 0Z" fill="#F2EBFF"/>
<path d="M1018.58 0C985.494 0 958.668 26.8256 958.668 59.9167H1078.5C1078.5 26.8256 1051.68 0 1018.58 0Z" fill="#F2EBFF"/>
<path d="M1138.42 0C1105.33 0 1078.5 26.8256 1078.5 59.9167H1198.33C1198.33 26.8256 1171.51 0 1138.42 0Z" fill="#F2EBFF"/>
<path d="M1258.25 0C1225.16 0 1198.33 26.8256 1198.33 59.9167H1318.17C1318.17 26.8256 1291.34 0 1258.25 0Z" fill="#F2EBFF"/>
<path d="M1378.08 0C1344.99 0 1318.17 26.8256 1318.17 59.9167H1438C1438 26.8256 1411.18 0 1378.08 0Z" fill="#F2EBFF"/>
</svg>
