<svg width="9" height="9" viewBox="0 0 9 9" fill="none" xmlns="http://www.w3.org/2000/svg">
<path fill-rule="evenodd" clip-rule="evenodd" d="M1.16667 0.583333C1.16667 0.261167 1.42783 0 1.75 0H7.58324C7.58327 0 7.58321 0 7.58324 0C7.66233 0 7.73784 0.0157415 7.80662 0.0442623C7.87542 0.0727289 7.93988 0.114926 7.99581 0.170854C8.05174 0.226783 8.09394 0.291242 8.1224 0.360044C8.15093 0.428822 8.16667 0.504239 8.16667 0.583333C8.16667 0.583458 8.16667 0.583209 8.16667 0.583333V6.41667C8.16667 6.73883 7.9055 7 7.58333 7C7.26117 7 7 6.73883 7 6.41667V1.99162L0.995812 7.99581C0.768006 8.22362 0.39866 8.22362 0.170854 7.99581C-0.0569515 7.76801 -0.0569515 7.39866 0.170854 7.17085L6.17504 1.16667H1.75C1.42783 1.16667 1.16667 0.905499 1.16667 0.583333Z" fill="#17172C"/>
</svg>
